<svg height="16" viewBox="0 0 16 16" width="16" xmlns="http://www.w3.org/2000/svg"><path d="m8 0c-2.1726875 0-2.4592188.0235625-3.3125.0625-.8515312.038875-1.428625.14596875-1.9375.34375-.5260625.2044375-.9615.49275005-1.40625.9375-.44474995.44475-.7330625.8801875-.9375 1.40625-.19778125.508875-.304875 1.0859688-.34375 1.9375-.0389375.8532812-.0625 1.1398125-.0625 3.3125 0 2.172688.0235625 2.459219.0625 3.3125.038875.851531.14596875 1.428625.34375 1.9375.2044375.526062.49275005.9615.9375 1.40625.44475.44475.8801875.733062 1.40625.9375.508875.197781 1.0859688.304875 1.9375.34375.8532812.038938 1.1398125.0625 3.3125.0625 2.172688 0 2.459219-.02357 3.3125-.0625.851531-.03887 1.428625-.145969 1.9375-.34375.526062-.204438.9615-.49275 1.40625-.9375s.733062-.880188.9375-1.40625c.197781-.508875.304875-1.085969.34375-1.9375.038938-.853276.0625-1.139812.0625-3.3125 0-2.1726875-.023562-2.4592188-.0625-3.3125-.038875-.8515312-.145969-1.428625-.34375-1.9375-.204438-.5260625-.49275-.9615-.9375-1.40625-.44475-.44474995-.880188-.7330625-1.40625-.9375-.508875-.19778125-1.085969-.304875-1.9375-.34375-.853281-.0389375-1.139812-.0625-3.3125-.0625zm0 1.4375c2.136094 0 2.375156.024035 3.21875.0625.779968.035594 1.218093.1404688 1.5.25.373406.145125.626313.3450625.90625.625.279938.2799375.479875.5328438.625.90625.109531.2819063.214406.7200313.25 1.5.03847.8435937.0625 1.0826563.0625 3.21875 0 2.136094-.02408 2.375156-.0625 3.21875-.03559.779968-.140469 1.218093-.25 1.5-.145125.373406-.345062.626313-.625.90625-.279937.279938-.532844.479875-.90625.625-.281907.109531-.720032.214406-1.5.25-.843469.03847-1.0825.0625-3.21875.0625s-2.3752813-.02408-3.21875-.0625c-.7799687-.035594-1.2180937-.140469-1.5-.25-.3734062-.145125-.6263125-.345062-.90625-.625-.2799375-.279937-.479875-.532844-.625-.90625-.1095312-.281907-.2144063-.720032-.25-1.5-.0384688-.843594-.0625-1.082656-.0625-3.21875 0-2.1360937.024035-2.3751563.0625-3.21875.0355937-.7799687.1404688-1.2180937.25-1.5.145125-.3734062.3450625-.6263125.625-.90625s.5328438-.479875.90625-.625c.2819063-.1095312.7200313-.2144063 1.5-.25.8435937-.0384688 1.0826563-.0625 3.21875-.0625zm4.28125 1.34375c-.530188 0-.96875.4073126-.96875.9375 0 .5301875.438562.96875.96875.96875.530187 0 .9375-.4385625.9375-.96875 0-.5301874-.407313-.9375-.9375-.9375zm-4.28125 1.125c-2.2688438 0-4.09375 1.8249062-4.09375 4.09375 0 2.268844 1.8249062 4.09375 4.09375 4.09375 2.268844 0 4.09375-1.824906 4.09375-4.09375 0-2.2688438-1.824906-4.09375-4.09375-4.09375zm0 1.4375c1.47275 0 2.65625 1.1834687 2.65625 2.65625 0 1.47275-1.1835 2.65625-2.65625 2.65625s-2.65625-1.1835-2.65625-2.65625c0-1.4727813 1.1835-2.65625 2.65625-2.65625z"/></svg>