<svg xmlns="http://www.w3.org/2000/svg" viewBox="0 0 229.8 76.38"><g><path fill="#fff" fill-rule="evenodd" d="M11.68 5.4v39.19h-6V5.4H0V0h17.39v5.4zM20.81 0h11.67q6.84 0 6.83 7.64v11c0 3.89-1.18 6.36-3.54 7.39l4.17 18.57h-5.66l-3.91-18h-3.6v18h-6V0zm6 21.49h3.91c1.78 0 2.67-1.08 2.67-3.23V8.63c0-2.15-.89-3.23-2.67-3.23h-3.95v16.09zm23.17 23.1H44V7.64Q44 0 51.12 0h4.47q7.14 0 7.14 7.64v37h-6V28.26h-6.79v16.33zm6.83-21.73V8a2.31 2.31 0 00-2.65-2.6h-1.62a2.3 2.3 0 00-2.6 2.6v14.86zm23.6-1.31V0h6v44.59h-6v-8.88L74 15.4v29.19h-6V0h6l6.4 21.55zm23-9.56V8.07q0-2.67-2.61-2.67h-.93q-2.55 0-2.55 2.67v7.39a2.2 2.2 0 00.5 1.68 13.2 13.2 0 001.61 1.12l5.66 3a28.29 28.29 0 012.58 1.74 4.26 4.26 0 011.21 1.43 7.88 7.88 0 01.43 3.2v9.5q0 7.52-7.2 7.51h-3.67q-7.14 0-7.14-8.19v-2.29h6v2.42q0 2.61 2.67 2.61H101c1.57 0 2.36-.87 2.36-2.61V29a2.19 2.19 0 00-.5-1.67 13.2 13.2 0 00-1.61-1.12L95.59 23a18 18 0 01-2.71-1.67 3.88 3.88 0 01-1.21-1.77 8.9 8.9 0 01-.37-2.83V7.64Q91.3 0 98.44 0h3.73q7.14 0 7.14 7.64V12zm24.72 7v5.41h-7.83v20.19h-6V0h14.78v5.4h-8.82v13.54zM140 44.59q-7.2 0-7.2-7.57V7.64q0-7.63 7.14-7.64h5.71q7.16 0 7.15 7.64V37q0 7.57-7.21 7.57zm1.43-5.4h3.05c1.57 0 2.36-.87 2.36-2.61V8c0-1.74-.9-2.61-2.68-2.61h-2.79A2.31 2.31 0 00138.75 8v28.58q0 2.61 2.67 2.61zM158.07 0h11.67q6.84 0 6.84 7.64v11c0 3.89-1.18 6.36-3.55 7.39l4.17 18.57h-5.66l-3.91-18H164v18h-6V0zm6 21.49h3.91c1.78 0 2.67-1.08 2.67-3.23V8.63c0-2.15-.89-3.23-2.67-3.23H164v16.09zm29.63 4.72L199.18 0h6.59v44.59h-6l.63-29.19-4.4 21.12h-4.59l-4.52-21.12.62 29.19h-6V0h6.59l5.53 26.21zM217 44.59h-6V7.64q0-7.63 7.14-7.64h4.47q7.14 0 7.14 7.64v37h-6V28.26H217v16.33zm6.83-21.73V8a2.31 2.31 0 00-2.61-2.61h-1.61A2.31 2.31 0 00217 8v14.86zM5.71 76.38V51.66h5.76c3.1 0 4.64 1.58 4.64 4.75V72.8q0 3.58-4 3.58zm3.31-3h2.48c.87 0 1.31-.37 1.31-1.11V56.44c0-1.19-.5-1.79-1.48-1.79H9v18.74zm10 3V51.66h8.2v3h-4.87v7.51h4.34v3h-4.34v8.23h4.89v3zM36 58.3v-2.17a1.29 1.29 0 00-1.44-1.48H34c-.94 0-1.41.5-1.41 1.48v4.1a1.23 1.23 0 00.27.93 7.66 7.66 0 00.9.62l3.13 1.69a14.59 14.59 0 011.47.91 2.42 2.42 0 01.67.79 4.39 4.39 0 01.23 1.83v5.27q0 4.16-4 4.16h-2q-4 0-4-4.54V70.6h3.31v1.34a1.3 1.3 0 001.48 1.45h.58c.88 0 1.31-.49 1.31-1.45v-4.2a1.23 1.23 0 00-.27-.93 7.66 7.66 0 00-.9-.62l-3.13-1.76a9.49 9.49 0 01-1.5-.93 2.13 2.13 0 01-.67-1 4.84 4.84 0 01-.2-1.5v-5.11q0-4.23 4-4.23h2.03q4 0 4 4.23v2.41zm6 18.08V51.66h3.31v24.72zm11.51-9v-3h5v12h-6.44q-3.82 0-3.82-4.16V55.89q0-4.23 3.82-4.23h2.27c2.81 0 4.2 1.43 4.2 4.3v2.69h-3.3v-2.21c0-1.19-.47-1.79-1.41-1.79H53c-1 0-1.44.6-1.44 1.79V71.6c0 1.19.48 1.79 1.44 1.79h2.24v-6.06zm14.56-3.72v-12h3.31v24.72h-3.3v-4.92L64.54 60.2v16.18h-3.31V51.66h3.31l3.54 12zm18.27-5.36v-2.17a1.3 1.3 0 00-1.45-1.48h-.52c-.94 0-1.41.5-1.41 1.48v4.1a1.19 1.19 0 00.28.93 6.63 6.63 0 00.89.62l3.14 1.69a14.16 14.16 0 011.46.91 2.3 2.3 0 01.67.79 4.39 4.39 0 01.24 1.83v5.27q0 4.16-4 4.16h-2c-2.64 0-4-1.51-4-4.54V70.6H83v1.34a1.3 1.3 0 001.48 1.45H85c.87 0 1.31-.49 1.31-1.45v-4.2a1.23 1.23 0 00-.28-.93 6.24 6.24 0 00-.9-.62L82 64.43a9.49 9.49 0 01-1.5-.93 2.13 2.13 0 01-.67-1 4.87 4.87 0 01-.2-1.57v-5.04c0-2.82 1.31-4.23 4-4.23h2.07q4 0 4 4.23v2.41zm11.33-3.65v21.73h-3.31V54.65h-3.17v-3h9.65v3zm15.8-3v20q0 4.68-4 4.68h-2.79q-4 0-4-4.71v-20H106v20.15q0 1.62 1.44 1.62h1.34q1.35 0 1.35-1.62V51.66zm3.1 24.72V51.66h5.75q4.65 0 4.65 4.75V72.8q0 3.58-4 3.58zm3.31-3h2.48c.87 0 1.31-.37 1.31-1.11V56.44c0-1.19-.5-1.79-1.48-1.79h-2.31v18.74zm10 3V51.66h3.31v24.72zm10.23 0q-4 0-4-4.2V55.89q0-4.23 4-4.23h3.17c2.64 0 3.95 1.41 3.95 4.23v16.29q0 4.2-4 4.2zm.79-3h1.69c.87 0 1.31-.49 1.31-1.45V56.1a1.29 1.29 0 00-1.48-1.45h-1.55a1.28 1.28 0 00-1.45 1.45v15.84a1.3 1.3 0 001.5 1.45z"/></g></svg>